<svg xmlns="http://www.w3.org/2000/svg" viewBox="0 0 1200 900" role="img" aria-labelledby="estudio-umbral-title estudio-umbral-desc">
<title id="estudio-umbral-title">Estudio Umbral</title><desc id="estudio-umbral-desc">Imagen editorial abstracta para architecture interior</desc><defs>
<linearGradient id="g" x1="0" y1="0" x2="1" y2="1"><stop offset="0" stop-color="#fbf7ef"/><stop offset="0.42" stop-color="#f1e3d0"/><stop offset="1" stop-color="#1F2933"/></linearGradient>
<linearGradient id="a" x1="0" y1="0" x2="1" y2="0"><stop offset="0" stop-color="#B88A44"/><stop offset="1" stop-color="#ffffff" stop-opacity=".3"/></linearGradient>
<pattern id="grid" width="48" height="48" patternUnits="userSpaceOnUse"><path d="M48 0H0v48" fill="none" stroke="#1F2933" stroke-opacity=".08" stroke-width="1"/></pattern>
<filter id="grain"><feTurbulence type="fractalNoise" baseFrequency=".72" numOctaves="2" stitchTiles="stitch"/><feColorMatrix type="saturate" values="0"/><feComponentTransfer><feFuncA type="table" tableValues="0 .07"/></feComponentTransfer></filter>
</defs>
<rect width="1200" height="900" fill="url(#g)"/>
<rect width="1200" height="900" fill="url(#grid)"/>
<rect width="1200" height="900" filter="url(#grain)" opacity=".35"/>
<path d="M80 720 C260 610 310 420 500 460 C720 506 722 220 1060 160" fill="none" stroke="#B88A44" stroke-width="3" stroke-opacity=".68"/>
<rect x="90" y="110" width="410" height="560" rx="32" fill="#fff" fill-opacity=".78" stroke="#fff" stroke-opacity=".7"/>
<rect x="138" y="160" width="310" height="210" rx="22" fill="#1F2933" fill-opacity=".9"/>
<rect x="138" y="402" width="210" height="18" rx="9" fill="#1F2933" fill-opacity=".22"/>
<rect x="138" y="442" width="300" height="16" rx="8" fill="#1F2933" fill-opacity=".12"/>
<rect x="138" y="474" width="256" height="16" rx="8" fill="#1F2933" fill-opacity=".12"/>
<rect x="560" y="180" width="520" height="470" rx="38" fill="#0b1220" fill-opacity=".74"/>
<rect x="612" y="236" width="186" height="250" rx="26" fill="url(#a)" opacity=".88"/>
<rect x="830" y="250" width="180" height="28" rx="14" fill="#fff" fill-opacity=".72"/>
<rect x="830" y="312" width="205" height="16" rx="8" fill="#fff" fill-opacity=".35"/>
<rect x="830" y="348" width="150" height="16" rx="8" fill="#fff" fill-opacity=".25"/>

<rect x="652" y="532" width="290" height="72" rx="20" fill="#fff" fill-opacity=".14"/><path d="M684 568h222" stroke="#fff" stroke-opacity=".5" stroke-width="4"/>

<text x="92" y="790" fill="#fff" fill-opacity=".88" font-family="Georgia,serif" font-size="54" font-weight="700">Estudio Umbral</text>
<text x="96" y="832" fill="#fff" fill-opacity=".62" font-family="Arial,sans-serif" font-size="22" letter-spacing="4">ARCHITECTURE INTERIOR</text>
</svg>